<svg width="1024" height="1024" viewBox="0 0 1024 1024" fill="none" xmlns="http://www.w3.org/2000/svg">
<g clip-path="url(#clip0_10_2)">
<path d="M250.178 264.52L260.272 134.558C261.31 121.191 269.007 109.244 280.75 102.773C292.895 96.0813 307.648 96.1909 319.692 103.063L413.769 156.739C422.942 161.972 433.609 163.968 444.054 162.404L502.875 153.599C683.375 126.578 855.222 239.949 901.408 416.52L903.504 424.532C906.596 436.353 916.933 444.849 929.13 445.593L939.362 446.217C1003.55 450.13 1005.86 543.812 941.945 550.887C929.661 552.247 919.75 561.553 917.619 573.727L912.585 602.493C900.515 671.466 862.865 733.346 807.158 775.769C797.62 783.033 792.021 794.334 792.021 806.323V901.669C792.021 915.476 780.828 926.669 767.021 926.669H658.857C645.049 926.669 633.857 915.476 633.857 901.669V809.775C633.857 802.986 627.168 798.219 620.751 800.435C558.692 821.866 491.274 822.086 429.077 801.061L427.038 800.372C420.555 798.181 413.836 803.002 413.836 809.846V901.669C413.836 915.476 402.643 926.669 388.836 926.669H286.936C273.128 926.669 261.936 915.476 261.936 901.669V773.447C261.936 766.776 259.27 760.383 254.532 755.688L193.865 695.577C182.455 684.272 173.331 670.874 166.992 656.116L132.978 576.928C129.034 567.746 120.001 561.795 110.008 561.795H63C49.1929 561.795 38 550.602 38 536.795V397.311C38 383.504 49.1929 372.311 63 372.311H161.405C170.735 372.311 179.289 367.115 183.59 358.836L199.622 327.974C205.103 317.423 212.422 307.934 221.234 299.953L242.035 281.114C246.77 276.826 249.683 270.889 250.178 264.52Z" fill="#FFD600" stroke="black" stroke-width="40"/>
<circle cx="287.774" cy="413.027" r="42.2815" fill="black"/>
<line x1="411.431" y1="314.425" x2="654.27" y2="314.425" stroke="black" stroke-width="50" stroke-linecap="round"/>
</g>
<defs>
<clipPath id="clip0_10_2">
<rect width="1024" height="1024" fill="white"/>
</clipPath>
</defs>
</svg>
